<mxfile host="app.diagrams.net" modified="2024-02-28T16:16:36.239Z" agent="Mozilla/5.0 (X11; Linux x86_64; rv:109.0) Gecko/20100101 Firefox/115.0" version="23.1.7" etag="jAevIxXz0P6a8r6FS7U2" type="github">
  <diagram name="Page-1" id="3Ok6B01HzRWFBHmKuN-n">
    <mxGraphModel>
      <root>
        <mxCell id="0" />
        <mxCell id="1" parent="0" />
      </root>
    </mxGraphModel>
  </diagram>
</mxfile>
